<svg width="5146" height="1000" viewBox="0 0 5146 1000" fill="none" xmlns="http://www.w3.org/2000/svg">
<g clip-path="url(#clip0_16_3191)">
<g filter="url(#filter0_d_16_3191)">
<rect x="123" y="130" width="750" height="750" rx="50" fill="#155274"/>
<g filter="url(#filter1_i_16_3191)">
<path d="M148 235H848V810C848 832.091 830.091 850 808 850H188C165.909 850 148 832.091 148 810V235Z" fill="#F1F1F2"/>
</g>
<g filter="url(#filter2_i_16_3191)">
<rect x="186" y="173" width="464" height="34" rx="17" fill="#D9D9D9"/>
</g>
<g filter="url(#filter3_i_16_3191)">
<circle cx="799" cy="188" r="15" fill="#D9D9D9"/>
</g>
<g filter="url(#filter4_i_16_3191)">
<circle cx="758" cy="188" r="15" fill="#D9D9D9"/>
</g>
<g filter="url(#filter5_i_16_3191)">
<circle cx="717" cy="188" r="15" fill="#D9D9D9"/>
</g>
</g>
<g filter="url(#filter6_df_16_3191)">
<g filter="url(#filter7_dd_16_3191)">
<mask id="path-9-inside-1_16_3191" fill="white">
<path d="M635.09 373.375C584.822 335.541 524.344 315.115 462.253 315C400.161 314.885 339.614 335.087 289.216 372.734L360.107 474.989C389.794 452.812 425.46 440.913 462.036 440.98C498.612 441.048 534.237 453.08 563.848 475.366L635.09 373.375Z"/>
</mask>
<path d="M635.09 373.375C584.822 335.541 524.344 315.115 462.253 315C400.161 314.885 339.614 335.087 289.216 372.734L360.107 474.989C389.794 452.812 425.46 440.913 462.036 440.98C498.612 441.048 534.237 453.08 563.848 475.366L635.09 373.375Z" fill="#EAD51F"/>
<path d="M635.09 373.375C584.822 335.541 524.344 315.115 462.253 315C400.161 314.885 339.614 335.087 289.216 372.734L360.107 474.989C389.794 452.812 425.46 440.913 462.036 440.98C498.612 441.048 534.237 453.08 563.848 475.366L635.09 373.375Z" stroke="black" stroke-width="2" mask="url(#path-9-inside-1_16_3191)"/>
</g>
<g filter="url(#filter8_dd_16_3191)">
<mask id="path-10-inside-2_16_3191" fill="white">
<path d="M757.064 621.566C757.064 573.155 746.019 525.433 724.833 482.305C703.648 439.178 672.924 401.871 635.176 373.44L563.899 475.405C586.134 492.152 604.233 514.128 616.712 539.533C629.192 564.938 635.698 593.049 635.698 621.566H757.064Z"/>
</mask>
<path d="M757.064 621.566C757.064 573.155 746.019 525.433 724.833 482.305C703.648 439.178 672.924 401.871 635.176 373.44L563.899 475.405C586.134 492.152 604.233 514.128 616.712 539.533C629.192 564.938 635.698 593.049 635.698 621.566H757.064Z" fill="#00FF1A"/>
<path d="M757.064 621.566C757.064 573.155 746.019 525.433 724.833 482.305C703.648 439.178 672.924 401.871 635.176 373.44L563.899 475.405C586.134 492.152 604.233 514.128 616.712 539.533C629.192 564.938 635.698 593.049 635.698 621.566H757.064Z" stroke="black" stroke-width="2" mask="url(#path-10-inside-2_16_3191)"/>
</g>
<g filter="url(#filter9_dd_16_3191)">
<mask id="path-11-inside-3_16_3191" fill="white">
<path d="M289.778 373.582C251.859 401.768 220.91 438.873 199.465 481.862C178.019 524.851 166.686 572.501 166.394 620.911L287.757 621.701C287.929 593.184 294.605 565.116 307.238 539.793C319.871 514.47 338.102 492.612 360.438 476.009L289.778 373.582Z"/>
</mask>
<path d="M289.778 373.582C251.859 401.768 220.91 438.873 199.465 481.862C178.019 524.851 166.686 572.501 166.394 620.911L287.757 621.701C287.929 593.184 294.605 565.116 307.238 539.793C319.871 514.47 338.102 492.612 360.438 476.009L289.778 373.582Z" fill="#FF0000"/>
<path d="M289.778 373.582C251.859 401.768 220.91 438.873 199.465 481.862C178.019 524.851 166.686 572.501 166.394 620.911L287.757 621.701C287.929 593.184 294.605 565.116 307.238 539.793C319.871 514.47 338.102 492.612 360.438 476.009L289.778 373.582Z" stroke="black" stroke-width="2" mask="url(#path-11-inside-3_16_3191)"/>
</g>
<g filter="url(#filter10_di_16_3191)">
<path d="M519.587 627.203C516.247 640.6 502.678 648.752 489.281 645.412C475.884 642.072 467.732 628.503 471.072 615.106C474.412 601.709 487.98 593.557 501.377 596.897C514.774 600.237 522.927 613.806 519.587 627.203Z" fill="#6C87B3"/>
<path d="M561.735 350.7C562.132 349.543 563.86 349.974 563.668 351.182L519.809 626.396C519.717 626.975 519.149 627.351 518.58 627.209L471.958 615.585C471.389 615.443 471.064 614.845 471.254 614.29L561.735 350.7Z" fill="#6C87B3"/>
</g>
</g>
<path d="M508.716 719.937V629C508.716 621.5 502.656 614.938 495.731 614.938C488.806 614.938 482.747 621.5 482.747 629V740.562" fill="white"/>
<path d="M508.716 719.937V629C508.716 621.5 502.656 614.938 495.731 614.938C488.806 614.938 482.747 621.5 482.747 629V740.562" stroke="#4C5159" stroke-width="9" stroke-miterlimit="10"/>
<path d="M533.82 696.5V673.062C533.82 665.562 527.994 659 521.335 659C514.676 659 508.85 665.562 508.85 673.062V696.5" fill="white"/>
<path d="M533.82 696.5V673.062C533.82 665.562 527.994 659 521.335 659C514.676 659 508.85 665.562 508.85 673.062V696.5" stroke="#4C5159" stroke-width="9" stroke-miterlimit="10"/>
<path d="M559.788 719.938V687.125C559.788 679.625 553.728 673.062 546.803 673.062C539.878 673.062 533.819 679.625 533.819 687.125V719.938" fill="white"/>
<path d="M559.788 719.938V687.125C559.788 679.625 553.728 673.062 546.803 673.062C539.878 673.062 533.819 679.625 533.819 687.125V719.938" stroke="#4C5159" stroke-width="9" stroke-miterlimit="10"/>
<path d="M559.788 714.313V701.188C559.788 693.687 565.847 687.125 572.772 687.125C579.697 687.125 585.756 693.687 585.756 701.188V779C585.756 782.75 584.025 785.563 582.294 788.375L568.444 803.375C566.713 805.25 564.981 808.063 564.981 810.875V814.625" fill="white"/>
<path d="M559.788 714.313V701.188C559.788 693.687 565.847 687.125 572.772 687.125C579.697 687.125 585.756 693.687 585.756 701.188V779C585.756 782.75 584.025 785.563 582.294 788.375L568.444 803.375C566.713 805.25 564.981 808.063 564.981 810.875V814.625" stroke="#4C5159" stroke-width="9" stroke-miterlimit="10"/>
<path d="M483.613 715.25H465.435C461.106 715.25 456.778 719 456.778 724.625V785.562C456.778 790.25 459.375 794.938 463.703 796.813L474.091 802.438C478.419 804.313 481.016 809 481.016 813.688" fill="white"/>
<path d="M483.613 715.25H465.435C461.106 715.25 456.778 719 456.778 724.625V785.562C456.778 790.25 459.375 794.938 463.703 796.813L474.091 802.438C478.419 804.313 481.016 809 481.016 813.688" stroke="#4C5159" stroke-width="9" stroke-miterlimit="10"/>
<path d="M461.106 854V819.313C461.106 818.375 461.972 817.438 462.838 817.438H583.16C584.025 817.438 584.891 818.375 584.891 819.313V854" fill="white"/>
<path d="M461.106 854V819.313C461.106 818.375 461.972 817.438 462.838 817.438H583.16C584.025 817.438 584.891 818.375 584.891 819.313V854" stroke="#4C5159" stroke-width="9" stroke-miterlimit="10"/>
<rect x="556" y="709" width="8.3" height="10.93" fill="#4C5159"/>
<g filter="url(#filter11_df_16_3191)">
<path d="M434 626C431.791 626 430 624.209 430 622V622C430 619.791 431.791 618 434 618H470V626H434Z" fill="#4C5159"/>
</g>
<g filter="url(#filter12_df_16_3191)">
<path d="M492 565C492 562.791 493.791 561 496 561V561C498.209 561 500 562.791 500 565V601H492V565Z" fill="#4C5159"/>
</g>
<g filter="url(#filter13_df_16_3191)">
<path d="M533.14 576.064C534.56 574.372 537.083 574.151 538.776 575.571V575.571C540.468 576.991 540.689 579.514 539.269 581.206L516.128 608.784L510 603.642L533.14 576.064Z" fill="#4C5159"/>
</g>
<g filter="url(#filter14_df_16_3191)">
<path d="M557 618C559.209 618 561 619.791 561 622V622C561 624.209 559.209 626 557 626H521V618H557Z" fill="#4C5159"/>
</g>
<g filter="url(#filter15_df_16_3191)">
<path d="M452.571 581.206C451.151 579.514 451.372 576.991 453.064 575.571V575.571C454.756 574.151 457.279 574.372 458.7 576.064L481.84 603.642L475.712 608.784L452.571 581.206Z" fill="#4C5159"/>
</g>
<path d="M1173.24 725H1049.82L1237.87 180.273H1386.29L1574.07 725H1450.65L1314.2 304.751H1309.95L1173.24 725ZM1165.52 510.886H1457.04V600.787H1165.52V510.886ZM1637.5 878.205V316.455H1749.22V385.077H1754.27C1759.23 374.084 1766.42 362.912 1775.81 351.564C1785.39 340.038 1797.8 330.463 1813.05 322.838C1828.48 315.036 1847.63 311.135 1870.5 311.135C1900.29 311.135 1927.78 318.937 1952.96 334.541C1978.14 349.968 1998.26 373.286 2013.33 404.494C2028.41 435.525 2035.94 474.447 2035.94 521.259C2035.94 566.83 2028.58 605.309 2013.87 636.695C1999.33 667.903 1979.47 691.575 1954.29 707.711C1929.28 723.67 1901.27 731.65 1870.24 731.65C1848.25 731.65 1829.54 728.014 1814.11 720.744C1798.86 713.474 1786.36 704.342 1776.61 693.348C1766.86 682.177 1759.41 670.917 1754.27 659.569H1750.81V878.205H1637.5ZM1748.42 520.727C1748.42 545.02 1751.79 566.21 1758.52 584.297C1765.26 602.383 1775.02 616.48 1787.78 626.587C1800.55 636.517 1816.07 641.482 1834.33 641.482C1852.77 641.482 1868.37 636.429 1881.14 626.321C1893.91 616.037 1903.57 601.851 1910.13 583.765C1916.87 565.501 1920.24 544.488 1920.24 520.727C1920.24 497.144 1916.96 476.397 1910.4 458.488C1903.84 440.579 1894.17 426.57 1881.41 416.463C1868.64 406.356 1852.95 401.302 1834.33 401.302C1815.89 401.302 1800.28 406.178 1787.52 415.931C1774.93 425.684 1765.26 439.515 1758.52 457.424C1751.79 475.333 1748.42 496.434 1748.42 520.727ZM2111.48 878.205V316.455H2223.19V385.077H2228.25C2233.21 374.084 2240.39 362.912 2249.79 351.564C2259.37 340.038 2271.78 330.463 2287.03 322.838C2302.45 315.036 2321.6 311.135 2344.48 311.135C2374.27 311.135 2401.75 318.937 2426.93 334.541C2452.11 349.968 2472.24 373.286 2487.31 404.494C2502.38 435.525 2509.92 474.447 2509.92 521.259C2509.92 566.83 2502.56 605.309 2487.84 636.695C2473.3 667.903 2453.44 691.575 2428.26 707.711C2403.26 723.67 2375.24 731.65 2344.21 731.65C2322.23 731.65 2303.52 728.014 2288.09 720.744C2272.84 713.474 2260.34 704.342 2250.59 693.348C2240.84 682.177 2233.39 670.917 2228.25 659.569H2224.79V878.205H2111.48ZM2222.39 520.727C2222.39 545.02 2225.76 566.21 2232.5 584.297C2239.24 602.383 2248.99 616.48 2261.76 626.587C2274.53 636.517 2290.04 641.482 2308.31 641.482C2326.75 641.482 2342.35 636.429 2355.12 626.321C2367.89 616.037 2377.55 601.851 2384.11 583.765C2390.85 565.501 2394.22 544.488 2394.22 520.727C2394.22 497.144 2390.94 476.397 2384.38 458.488C2377.82 440.579 2368.15 426.57 2355.38 416.463C2342.62 406.356 2326.92 401.302 2308.31 401.302C2289.86 401.302 2274.26 406.178 2261.49 415.931C2248.9 425.684 2239.24 439.515 2232.5 457.424C2225.76 475.333 2222.39 496.434 2222.39 520.727ZM3056.44 336.935C3054.31 315.479 3045.18 298.811 3029.05 286.931C3012.91 275.05 2991.01 269.11 2963.35 269.11C2944.55 269.11 2928.68 271.77 2915.74 277.089C2902.79 282.232 2892.86 289.413 2885.95 298.634C2879.21 307.855 2875.84 318.316 2875.84 330.02C2875.49 339.772 2877.53 348.283 2881.96 355.554C2886.57 362.824 2892.86 369.119 2900.84 374.438C2908.82 379.58 2918.04 384.102 2928.5 388.003C2938.97 391.727 2950.14 394.919 2962.02 397.578L3010.96 409.282C3034.72 414.601 3056.53 421.694 3076.39 430.56C3096.25 439.426 3113.45 450.331 3127.99 463.276C3142.53 476.22 3153.79 491.469 3161.77 509.024C3169.93 526.579 3174.09 546.705 3174.27 569.402C3174.09 602.738 3165.58 631.641 3148.74 656.111C3132.07 680.404 3107.95 699.289 3076.39 712.765C3045 726.064 3007.15 732.713 2962.82 732.713C2918.84 732.713 2880.54 725.975 2847.91 712.499C2815.46 699.023 2790.11 679.074 2771.84 652.653C2753.76 626.055 2744.27 593.163 2743.38 553.975H2854.83C2856.07 572.239 2861.3 587.488 2870.52 599.723C2879.92 611.781 2892.42 620.913 2908.02 627.119C2923.81 633.148 2941.63 636.163 2961.49 636.163C2980.99 636.163 2997.93 633.326 3012.29 627.651C3026.83 621.977 3038.09 614.086 3046.07 603.979C3054.05 593.872 3058.04 582.257 3058.04 569.136C3058.04 556.901 3054.4 546.616 3047.13 538.282C3040.04 529.948 3029.58 522.855 3015.75 517.004C3002.09 511.152 2985.34 505.832 2965.48 501.045L2906.16 486.15C2860.24 474.979 2823.97 457.513 2797.38 433.752C2770.78 409.991 2757.57 377.985 2757.75 337.733C2757.57 304.751 2766.35 275.937 2784.08 251.289C2801.99 226.642 2826.55 207.403 2857.75 193.572C2888.96 179.741 2924.43 172.825 2964.15 172.825C3004.58 172.825 3039.86 179.741 3070.01 193.572C3100.33 207.403 3123.91 226.642 3140.76 251.289C3157.6 275.937 3166.29 304.485 3166.82 336.935H3056.44ZM3249.61 878.205V316.455H3361.32V385.077H3366.37C3371.34 374.084 3378.52 362.912 3387.92 351.564C3397.49 340.038 3409.91 330.463 3425.16 322.838C3440.58 315.036 3459.73 311.135 3482.61 311.135C3512.4 311.135 3539.88 318.937 3565.06 334.541C3590.24 349.968 3610.37 373.286 3625.44 404.494C3640.51 435.525 3648.05 474.447 3648.05 521.259C3648.05 566.83 3640.69 605.309 3625.97 636.695C3611.43 667.903 3591.57 691.575 3566.39 707.711C3541.39 723.67 3513.37 731.65 3482.34 731.65C3460.35 731.65 3441.65 728.014 3426.22 720.744C3410.97 713.474 3398.47 704.342 3388.72 693.348C3378.96 682.177 3371.52 670.917 3366.37 659.569H3362.92V878.205H3249.61ZM3360.52 520.727C3360.52 545.02 3363.89 566.21 3370.63 584.297C3377.37 602.383 3387.12 616.48 3399.89 626.587C3412.66 636.517 3428.17 641.482 3446.43 641.482C3464.88 641.482 3480.48 636.429 3493.25 626.321C3506.01 616.037 3515.68 601.851 3522.24 583.765C3528.98 565.501 3532.35 544.488 3532.35 520.727C3532.35 497.144 3529.07 476.397 3522.5 458.488C3515.94 440.579 3506.28 426.57 3493.51 416.463C3480.75 406.356 3465.05 401.302 3446.43 401.302C3427.99 401.302 3412.39 406.178 3399.62 415.931C3387.03 425.684 3377.37 439.515 3370.63 457.424C3363.89 475.333 3360.52 496.434 3360.52 520.727ZM3909.77 732.979C3867.75 732.979 3831.57 724.468 3801.25 707.445C3771.11 690.245 3747.88 665.952 3731.57 634.567C3715.25 603.004 3707.09 565.678 3707.09 522.589C3707.09 480.564 3715.25 443.682 3731.57 411.941C3747.88 380.201 3770.84 355.465 3800.45 337.733C3830.24 320.001 3865.18 311.135 3905.25 311.135C3932.2 311.135 3957.29 315.479 3980.52 324.168C4003.93 332.679 4024.32 345.535 4041.7 362.735C4059.25 379.935 4072.91 401.568 4082.66 427.634C4092.41 453.523 4097.29 483.845 4097.29 518.599V549.719H3752.31V479.5H3990.63C3990.63 463.187 3987.08 448.735 3979.99 436.146C3972.9 423.556 3963.06 413.715 3950.47 406.622C3938.05 399.352 3923.6 395.717 3907.11 395.717C3889.91 395.717 3874.66 399.706 3861.36 407.686C3848.24 415.488 3837.96 426.038 3830.51 439.337C3823.06 452.459 3819.25 467.088 3819.07 483.224V549.985C3819.07 570.2 3822.8 587.666 3830.24 602.383C3837.87 617.101 3848.6 628.449 3862.43 636.429C3876.26 644.408 3892.66 648.398 3911.63 648.398C3924.22 648.398 3935.75 646.625 3946.21 643.078C3956.67 639.532 3965.63 634.212 3973.08 627.119C3980.52 620.027 3986.2 611.338 3990.1 601.053L4094.89 607.969C4089.57 633.148 4078.67 655.136 4062.18 673.932C4045.87 692.55 4024.76 707.091 3998.88 717.553C3973.16 727.837 3943.46 732.979 3909.77 732.979ZM4357.42 732.979C4315.39 732.979 4279.22 724.468 4248.9 707.445C4218.75 690.245 4195.52 665.952 4179.21 634.567C4162.9 603.004 4154.74 565.678 4154.74 522.589C4154.74 480.564 4162.9 443.682 4179.21 411.941C4195.52 380.201 4218.49 355.465 4248.1 337.733C4277.89 320.001 4312.82 311.135 4352.89 311.135C4379.85 311.135 4404.94 315.479 4428.17 324.168C4451.57 332.679 4471.97 345.535 4489.34 362.735C4506.9 379.935 4520.55 401.568 4530.3 427.634C4540.06 453.523 4544.93 483.845 4544.93 518.599V549.719H4199.96V479.5H4438.27C4438.27 463.187 4434.73 448.735 4427.64 436.146C4420.54 423.556 4410.7 413.715 4398.11 406.622C4385.7 399.352 4371.25 395.717 4354.76 395.717C4337.56 395.717 4322.31 399.706 4309.01 407.686C4295.89 415.488 4285.6 426.038 4278.15 439.337C4270.71 452.459 4266.89 467.088 4266.72 483.224V549.985C4266.72 570.2 4270.44 587.666 4277.89 602.383C4285.51 617.101 4296.24 628.449 4310.07 636.429C4323.9 644.408 4340.3 648.398 4359.28 648.398C4371.87 648.398 4383.39 646.625 4393.86 643.078C4404.32 639.532 4413.27 634.212 4420.72 627.119C4428.17 620.027 4433.84 611.338 4437.74 601.053L4542.54 607.969C4537.22 633.148 4526.31 655.136 4509.82 673.932C4493.51 692.55 4472.41 707.091 4446.52 717.553C4420.81 727.837 4391.11 732.979 4357.42 732.979ZM4769.42 731.65C4738.39 731.65 4710.28 723.67 4685.1 707.711C4660.1 691.575 4640.24 667.903 4625.52 636.695C4610.98 605.309 4603.71 566.83 4603.71 521.259C4603.71 474.447 4611.25 435.525 4626.32 404.494C4641.39 373.286 4661.43 349.968 4686.43 334.541C4711.61 318.937 4739.19 311.135 4769.15 311.135C4792.03 311.135 4811.09 315.036 4826.34 322.838C4841.77 330.463 4854.18 340.038 4863.58 351.564C4873.15 362.912 4880.42 374.084 4885.39 385.077H4888.84V180.273H5001.89V725H4890.17V659.569H4885.39C4880.07 670.917 4872.53 682.177 4862.78 693.348C4853.2 704.342 4840.7 713.474 4825.28 720.744C4810.03 728.014 4791.41 731.65 4769.42 731.65ZM4805.33 641.482C4823.59 641.482 4839.02 636.517 4851.61 626.587C4864.37 616.48 4874.13 602.383 4880.87 584.297C4887.78 566.21 4891.24 545.02 4891.24 520.727C4891.24 496.434 4887.87 475.333 4881.13 457.424C4874.39 439.515 4864.64 425.684 4851.87 415.931C4839.11 406.178 4823.59 401.302 4805.33 401.302C4786.71 401.302 4771.02 406.356 4758.25 416.463C4745.48 426.57 4735.82 440.579 4729.26 458.488C4722.7 476.397 4719.42 497.144 4719.42 520.727C4719.42 544.488 4722.7 565.501 4729.26 583.765C4735.99 601.851 4745.66 616.037 4758.25 626.321C4771.02 636.429 4786.71 641.482 4805.33 641.482Z" fill="#0D1C6A"/>
</g>
<rect x="0.5" y="0.5" width="5145" height="999" rx="4.5" stroke="#9747FF" stroke-dasharray="10 5"/>
<defs>
<filter id="filter0_d_16_3191" x="119" y="130" width="758" height="758" filterUnits="userSpaceOnUse" color-interpolation-filters="sRGB">
<feFlood flood-opacity="0" result="BackgroundImageFix"/>
<feColorMatrix in="SourceAlpha" type="matrix" values="0 0 0 0 0 0 0 0 0 0 0 0 0 0 0 0 0 0 127 0" result="hardAlpha"/>
<feOffset dy="4"/>
<feGaussianBlur stdDeviation="2"/>
<feComposite in2="hardAlpha" operator="out"/>
<feColorMatrix type="matrix" values="0 0 0 0 0 0 0 0 0 0 0 0 0 0 0 0 0 0 0.25 0"/>
<feBlend mode="normal" in2="BackgroundImageFix" result="effect1_dropShadow_16_3191"/>
<feBlend mode="normal" in="SourceGraphic" in2="effect1_dropShadow_16_3191" result="shape"/>
</filter>
<filter id="filter1_i_16_3191" x="148" y="235" width="700" height="619" filterUnits="userSpaceOnUse" color-interpolation-filters="sRGB">
<feFlood flood-opacity="0" result="BackgroundImageFix"/>
<feBlend mode="normal" in="SourceGraphic" in2="BackgroundImageFix" result="shape"/>
<feColorMatrix in="SourceAlpha" type="matrix" values="0 0 0 0 0 0 0 0 0 0 0 0 0 0 0 0 0 0 127 0" result="hardAlpha"/>
<feOffset dy="4"/>
<feGaussianBlur stdDeviation="2"/>
<feComposite in2="hardAlpha" operator="arithmetic" k2="-1" k3="1"/>
<feColorMatrix type="matrix" values="0 0 0 0 0 0 0 0 0 0 0 0 0 0 0 0 0 0 0.25 0"/>
<feBlend mode="normal" in2="shape" result="effect1_innerShadow_16_3191"/>
</filter>
<filter id="filter2_i_16_3191" x="186" y="173" width="464" height="38" filterUnits="userSpaceOnUse" color-interpolation-filters="sRGB">
<feFlood flood-opacity="0" result="BackgroundImageFix"/>
<feBlend mode="normal" in="SourceGraphic" in2="BackgroundImageFix" result="shape"/>
<feColorMatrix in="SourceAlpha" type="matrix" values="0 0 0 0 0 0 0 0 0 0 0 0 0 0 0 0 0 0 127 0" result="hardAlpha"/>
<feOffset dy="4"/>
<feGaussianBlur stdDeviation="2"/>
<feComposite in2="hardAlpha" operator="arithmetic" k2="-1" k3="1"/>
<feColorMatrix type="matrix" values="0 0 0 0 0 0 0 0 0 0 0 0 0 0 0 0 0 0 0.25 0"/>
<feBlend mode="normal" in2="shape" result="effect1_innerShadow_16_3191"/>
</filter>
<filter id="filter3_i_16_3191" x="784" y="173" width="30" height="34" filterUnits="userSpaceOnUse" color-interpolation-filters="sRGB">
<feFlood flood-opacity="0" result="BackgroundImageFix"/>
<feBlend mode="normal" in="SourceGraphic" in2="BackgroundImageFix" result="shape"/>
<feColorMatrix in="SourceAlpha" type="matrix" values="0 0 0 0 0 0 0 0 0 0 0 0 0 0 0 0 0 0 127 0" result="hardAlpha"/>
<feOffset dy="4"/>
<feGaussianBlur stdDeviation="2"/>
<feComposite in2="hardAlpha" operator="arithmetic" k2="-1" k3="1"/>
<feColorMatrix type="matrix" values="0 0 0 0 0 0 0 0 0 0 0 0 0 0 0 0 0 0 0.25 0"/>
<feBlend mode="normal" in2="shape" result="effect1_innerShadow_16_3191"/>
</filter>
<filter id="filter4_i_16_3191" x="743" y="173" width="30" height="34" filterUnits="userSpaceOnUse" color-interpolation-filters="sRGB">
<feFlood flood-opacity="0" result="BackgroundImageFix"/>
<feBlend mode="normal" in="SourceGraphic" in2="BackgroundImageFix" result="shape"/>
<feColorMatrix in="SourceAlpha" type="matrix" values="0 0 0 0 0 0 0 0 0 0 0 0 0 0 0 0 0 0 127 0" result="hardAlpha"/>
<feOffset dy="4"/>
<feGaussianBlur stdDeviation="2"/>
<feComposite in2="hardAlpha" operator="arithmetic" k2="-1" k3="1"/>
<feColorMatrix type="matrix" values="0 0 0 0 0 0 0 0 0 0 0 0 0 0 0 0 0 0 0.25 0"/>
<feBlend mode="normal" in2="shape" result="effect1_innerShadow_16_3191"/>
</filter>
<filter id="filter5_i_16_3191" x="702" y="173" width="30" height="34" filterUnits="userSpaceOnUse" color-interpolation-filters="sRGB">
<feFlood flood-opacity="0" result="BackgroundImageFix"/>
<feBlend mode="normal" in="SourceGraphic" in2="BackgroundImageFix" result="shape"/>
<feColorMatrix in="SourceAlpha" type="matrix" values="0 0 0 0 0 0 0 0 0 0 0 0 0 0 0 0 0 0 127 0" result="hardAlpha"/>
<feOffset dy="4"/>
<feGaussianBlur stdDeviation="2"/>
<feComposite in2="hardAlpha" operator="arithmetic" k2="-1" k3="1"/>
<feColorMatrix type="matrix" values="0 0 0 0 0 0 0 0 0 0 0 0 0 0 0 0 0 0 0.25 0"/>
<feBlend mode="normal" in2="shape" result="effect1_innerShadow_16_3191"/>
</filter>
<filter id="filter6_df_16_3191" x="162.394" y="313" width="598.67" height="341.16" filterUnits="userSpaceOnUse" color-interpolation-filters="sRGB">
<feFlood flood-opacity="0" result="BackgroundImageFix"/>
<feColorMatrix in="SourceAlpha" type="matrix" values="0 0 0 0 0 0 0 0 0 0 0 0 0 0 0 0 0 0 127 0" result="hardAlpha"/>
<feOffset dy="4"/>
<feGaussianBlur stdDeviation="2"/>
<feComposite in2="hardAlpha" operator="out"/>
<feColorMatrix type="matrix" values="0 0 0 0 0 0 0 0 0 0 0 0 0 0 0 0 0 0 0.25 0"/>
<feBlend mode="normal" in2="BackgroundImageFix" result="effect1_dropShadow_16_3191"/>
<feBlend mode="normal" in="SourceGraphic" in2="effect1_dropShadow_16_3191" result="shape"/>
<feGaussianBlur stdDeviation="1" result="effect2_foregroundBlur_16_3191"/>
</filter>
<filter id="filter7_dd_16_3191" x="285.216" y="315" width="353.875" height="168.366" filterUnits="userSpaceOnUse" color-interpolation-filters="sRGB">
<feFlood flood-opacity="0" result="BackgroundImageFix"/>
<feColorMatrix in="SourceAlpha" type="matrix" values="0 0 0 0 0 0 0 0 0 0 0 0 0 0 0 0 0 0 127 0" result="hardAlpha"/>
<feOffset dy="4"/>
<feGaussianBlur stdDeviation="2"/>
<feComposite in2="hardAlpha" operator="out"/>
<feColorMatrix type="matrix" values="0 0 0 0 0 0 0 0 0 0 0 0 0 0 0 0 0 0 0.25 0"/>
<feBlend mode="normal" in2="BackgroundImageFix" result="effect1_dropShadow_16_3191"/>
<feColorMatrix in="SourceAlpha" type="matrix" values="0 0 0 0 0 0 0 0 0 0 0 0 0 0 0 0 0 0 127 0" result="hardAlpha"/>
<feOffset dy="4"/>
<feGaussianBlur stdDeviation="2"/>
<feComposite in2="hardAlpha" operator="out"/>
<feColorMatrix type="matrix" values="0 0 0 0 0 0 0 0 0 0 0 0 0 0 0 0 0 0 0.25 0"/>
<feBlend mode="normal" in2="effect1_dropShadow_16_3191" result="effect2_dropShadow_16_3191"/>
<feBlend mode="normal" in="SourceGraphic" in2="effect2_dropShadow_16_3191" result="shape"/>
</filter>
<filter id="filter8_dd_16_3191" x="559.899" y="373.44" width="201.165" height="256.126" filterUnits="userSpaceOnUse" color-interpolation-filters="sRGB">
<feFlood flood-opacity="0" result="BackgroundImageFix"/>
<feColorMatrix in="SourceAlpha" type="matrix" values="0 0 0 0 0 0 0 0 0 0 0 0 0 0 0 0 0 0 127 0" result="hardAlpha"/>
<feOffset dy="4"/>
<feGaussianBlur stdDeviation="2"/>
<feComposite in2="hardAlpha" operator="out"/>
<feColorMatrix type="matrix" values="0 0 0 0 0 0 0 0 0 0 0 0 0 0 0 0 0 0 0.25 0"/>
<feBlend mode="normal" in2="BackgroundImageFix" result="effect1_dropShadow_16_3191"/>
<feColorMatrix in="SourceAlpha" type="matrix" values="0 0 0 0 0 0 0 0 0 0 0 0 0 0 0 0 0 0 127 0" result="hardAlpha"/>
<feOffset dy="4"/>
<feGaussianBlur stdDeviation="2"/>
<feComposite in2="hardAlpha" operator="out"/>
<feColorMatrix type="matrix" values="0 0 0 0 0 0 0 0 0 0 0 0 0 0 0 0 0 0 0.25 0"/>
<feBlend mode="normal" in2="effect1_dropShadow_16_3191" result="effect2_dropShadow_16_3191"/>
<feBlend mode="normal" in="SourceGraphic" in2="effect2_dropShadow_16_3191" result="shape"/>
</filter>
<filter id="filter9_dd_16_3191" x="162.394" y="373.582" width="202.044" height="256.118" filterUnits="userSpaceOnUse" color-interpolation-filters="sRGB">
<feFlood flood-opacity="0" result="BackgroundImageFix"/>
<feColorMatrix in="SourceAlpha" type="matrix" values="0 0 0 0 0 0 0 0 0 0 0 0 0 0 0 0 0 0 127 0" result="hardAlpha"/>
<feOffset dy="4"/>
<feGaussianBlur stdDeviation="2"/>
<feComposite in2="hardAlpha" operator="out"/>
<feColorMatrix type="matrix" values="0 0 0 0 0 0 0 0 0 0 0 0 0 0 0 0 0 0 0.25 0"/>
<feBlend mode="normal" in2="BackgroundImageFix" result="effect1_dropShadow_16_3191"/>
<feColorMatrix in="SourceAlpha" type="matrix" values="0 0 0 0 0 0 0 0 0 0 0 0 0 0 0 0 0 0 127 0" result="hardAlpha"/>
<feOffset dy="4"/>
<feGaussianBlur stdDeviation="2"/>
<feComposite in2="hardAlpha" operator="out"/>
<feColorMatrix type="matrix" values="0 0 0 0 0 0 0 0 0 0 0 0 0 0 0 0 0 0 0.25 0"/>
<feBlend mode="normal" in2="effect1_dropShadow_16_3191" result="effect2_dropShadow_16_3191"/>
<feBlend mode="normal" in="SourceGraphic" in2="effect2_dropShadow_16_3191" result="shape"/>
</filter>
<filter id="filter10_di_16_3191" x="466.323" y="350.022" width="101.359" height="304.139" filterUnits="userSpaceOnUse" color-interpolation-filters="sRGB">
<feFlood flood-opacity="0" result="BackgroundImageFix"/>
<feColorMatrix in="SourceAlpha" type="matrix" values="0 0 0 0 0 0 0 0 0 0 0 0 0 0 0 0 0 0 127 0" result="hardAlpha"/>
<feOffset dy="4"/>
<feGaussianBlur stdDeviation="2"/>
<feComposite in2="hardAlpha" operator="out"/>
<feColorMatrix type="matrix" values="0 0 0 0 0 0 0 0 0 0 0 0 0 0 0 0 0 0 0.25 0"/>
<feBlend mode="normal" in2="BackgroundImageFix" result="effect1_dropShadow_16_3191"/>
<feBlend mode="normal" in="SourceGraphic" in2="effect1_dropShadow_16_3191" result="shape"/>
<feColorMatrix in="SourceAlpha" type="matrix" values="0 0 0 0 0 0 0 0 0 0 0 0 0 0 0 0 0 0 127 0" result="hardAlpha"/>
<feOffset dy="4"/>
<feGaussianBlur stdDeviation="2"/>
<feComposite in2="hardAlpha" operator="arithmetic" k2="-1" k3="1"/>
<feColorMatrix type="matrix" values="0 0 0 0 0 0 0 0 0 0 0 0 0 0 0 0 0 0 0.25 0"/>
<feBlend mode="normal" in2="shape" result="effect2_innerShadow_16_3191"/>
</filter>
<filter id="filter11_df_16_3191" x="426" y="617" width="48" height="17" filterUnits="userSpaceOnUse" color-interpolation-filters="sRGB">
<feFlood flood-opacity="0" result="BackgroundImageFix"/>
<feColorMatrix in="SourceAlpha" type="matrix" values="0 0 0 0 0 0 0 0 0 0 0 0 0 0 0 0 0 0 127 0" result="hardAlpha"/>
<feOffset dy="4"/>
<feGaussianBlur stdDeviation="2"/>
<feComposite in2="hardAlpha" operator="out"/>
<feColorMatrix type="matrix" values="0 0 0 0 0 0 0 0 0 0 0 0 0 0 0 0 0 0 0.25 0"/>
<feBlend mode="normal" in2="BackgroundImageFix" result="effect1_dropShadow_16_3191"/>
<feBlend mode="normal" in="SourceGraphic" in2="effect1_dropShadow_16_3191" result="shape"/>
<feGaussianBlur stdDeviation="0.5" result="effect2_foregroundBlur_16_3191"/>
</filter>
<filter id="filter12_df_16_3191" x="488" y="560" width="16" height="49" filterUnits="userSpaceOnUse" color-interpolation-filters="sRGB">
<feFlood flood-opacity="0" result="BackgroundImageFix"/>
<feColorMatrix in="SourceAlpha" type="matrix" values="0 0 0 0 0 0 0 0 0 0 0 0 0 0 0 0 0 0 127 0" result="hardAlpha"/>
<feOffset dy="4"/>
<feGaussianBlur stdDeviation="2"/>
<feComposite in2="hardAlpha" operator="out"/>
<feColorMatrix type="matrix" values="0 0 0 0 0 0 0 0 0 0 0 0 0 0 0 0 0 0 0.25 0"/>
<feBlend mode="normal" in2="BackgroundImageFix" result="effect1_dropShadow_16_3191"/>
<feBlend mode="normal" in="SourceGraphic" in2="effect1_dropShadow_16_3191" result="shape"/>
<feGaussianBlur stdDeviation="0.5" result="effect2_foregroundBlur_16_3191"/>
</filter>
<filter id="filter13_df_16_3191" x="506" y="573.635" width="38.2046" height="43.1488" filterUnits="userSpaceOnUse" color-interpolation-filters="sRGB">
<feFlood flood-opacity="0" result="BackgroundImageFix"/>
<feColorMatrix in="SourceAlpha" type="matrix" values="0 0 0 0 0 0 0 0 0 0 0 0 0 0 0 0 0 0 127 0" result="hardAlpha"/>
<feOffset dy="4"/>
<feGaussianBlur stdDeviation="2"/>
<feComposite in2="hardAlpha" operator="out"/>
<feColorMatrix type="matrix" values="0 0 0 0 0 0 0 0 0 0 0 0 0 0 0 0 0 0 0.25 0"/>
<feBlend mode="normal" in2="BackgroundImageFix" result="effect1_dropShadow_16_3191"/>
<feBlend mode="normal" in="SourceGraphic" in2="effect1_dropShadow_16_3191" result="shape"/>
<feGaussianBlur stdDeviation="0.5" result="effect2_foregroundBlur_16_3191"/>
</filter>
<filter id="filter14_df_16_3191" x="517" y="617" width="48" height="17" filterUnits="userSpaceOnUse" color-interpolation-filters="sRGB">
<feFlood flood-opacity="0" result="BackgroundImageFix"/>
<feColorMatrix in="SourceAlpha" type="matrix" values="0 0 0 0 0 0 0 0 0 0 0 0 0 0 0 0 0 0 127 0" result="hardAlpha"/>
<feOffset dy="4"/>
<feGaussianBlur stdDeviation="2"/>
<feComposite in2="hardAlpha" operator="out"/>
<feColorMatrix type="matrix" values="0 0 0 0 0 0 0 0 0 0 0 0 0 0 0 0 0 0 0.25 0"/>
<feBlend mode="normal" in2="BackgroundImageFix" result="effect1_dropShadow_16_3191"/>
<feBlend mode="normal" in="SourceGraphic" in2="effect1_dropShadow_16_3191" result="shape"/>
<feGaussianBlur stdDeviation="0.5" result="effect2_foregroundBlur_16_3191"/>
</filter>
<filter id="filter15_df_16_3191" x="447.635" y="573.635" width="38.2046" height="43.1488" filterUnits="userSpaceOnUse" color-interpolation-filters="sRGB">
<feFlood flood-opacity="0" result="BackgroundImageFix"/>
<feColorMatrix in="SourceAlpha" type="matrix" values="0 0 0 0 0 0 0 0 0 0 0 0 0 0 0 0 0 0 127 0" result="hardAlpha"/>
<feOffset dy="4"/>
<feGaussianBlur stdDeviation="2"/>
<feComposite in2="hardAlpha" operator="out"/>
<feColorMatrix type="matrix" values="0 0 0 0 0 0 0 0 0 0 0 0 0 0 0 0 0 0 0.25 0"/>
<feBlend mode="normal" in2="BackgroundImageFix" result="effect1_dropShadow_16_3191"/>
<feBlend mode="normal" in="SourceGraphic" in2="effect1_dropShadow_16_3191" result="shape"/>
<feGaussianBlur stdDeviation="0.5" result="effect2_foregroundBlur_16_3191"/>
</filter>
<clipPath id="clip0_16_3191">
<rect width="5146" height="1000" rx="5" fill="white"/>
</clipPath>
</defs>
</svg>
