<?xml version="1.0" encoding="UTF-8"?>
<svg id="Layer_1" data-name="Layer 1" xmlns="http://www.w3.org/2000/svg" viewBox="0 0 985.88983 686.3344">
  <defs>
    <style>
      .cls-1 {
        fill: #fffdff;
      }

      .cls-1, .cls-2, .cls-3, .cls-4, .cls-5, .cls-6, .cls-7, .cls-8, .cls-9, .cls-10 {
        stroke-width: 0px;
      }

      .cls-2 {
        fill: #5dbb97;
      }

      .cls-3 {
        fill: #021b3a;
      }

      .cls-4 {
        fill: #fe5246;
      }

      .cls-5 {
        fill: #fdcb50;
      }

      .cls-6 {
        fill: #fff;
      }

      .cls-7 {
        fill: #ff534a;
      }

      .cls-8 {
        fill: #feffff;
      }

      .cls-9 {
        fill: #06a5f7;
      }

      .cls-10 {
        fill: #fcdb72;
      }
    </style>
  </defs>
  <g>
    <path class="cls-3" d="m548.85553,302.34775h32.39179l5.12256,11.29968h17.627l-38.71911-82.96307h-.50207l-38.66974,82.96307h17.57658l5.17298-11.29968Zm16.22163-35.50608l9.84284,21.64564h-19.73611l9.89326-21.64564Z"/>
    <path class="cls-3" d="m640.52181,232.69264h-28.42461v80.95479h16.271v-26.31551h12.15362c15.66809,0,28.47398-12.2534,28.47398-27.26923,0-15.06624-12.80589-27.37006-28.47398-27.37006Zm0,38.56891l-12.15362-.05042v-22.3977h12.15362c6.7296,0,12.20298,4.97236,12.20298,11.09801,0,6.279-5.47338,11.40052-12.20298,11.3501Z"/>
    <path class="cls-3" d="m706.57317,232.69264h-28.42461v80.95479h16.271v-26.31551h12.15362c15.66809,0,28.47398-12.2534,28.47398-27.26923,0-15.06624-12.80589-27.37006-28.47398-27.37006Zm0,38.56891l-12.15362-.05042v-22.3977h12.15362c6.72855,0,12.20298,4.97236,12.20298,11.09801,0,6.279-5.47443,11.40052-12.20298,11.3501Z"/>
    <path class="cls-2" d="m561.18657,366.57558c-8.73892-3.66573-14.46334-4.87153-14.46334-8.58767,0-2.76032,3.16366-5.02068,7.58354-5.02068,3.86634,0,10.09388,1.85702,12.50444,6.12565l12.4036-11.9509c-3.16366-7.98477-12.80589-13.81212-25.16012-13.81212-15.36664,0-28.6746,9.99515-28.6746,24.00683,0,12.20298,8.78829,18.93154,19.03237,23.35142,7.93541,3.51448,16.22163,7.1823,16.22163,11.3501,0,3.31491-4.46925,4.97236-9.03933,4.97236-6.78002,0-13.05797-3.01451-16.42225-7.98687l-13.0065,12.75757c4.06696,8.93849,16.17016,14.81416,29.47812,14.81416,16.22163,0,30.58414-9.59181,30.58414-25.00887,0-11.953-8.38601-19.68779-21.04169-25.01097Z"/>
    <path class="cls-2" d="m622.66785,334.53566h-30.58414v80.95479h21.49439v-23.85348h9.08974c16.97368,0,30.58309-13.10839,30.58309-28.72711,0-15.81829-13.91086-28.3742-30.58309-28.3742Zm0,37.31269l-9.08974-.04832v-17.42743h9.08974c5.72442,0,9.84284,3.71614,9.84284,8.63809,0,4.97236-4.06801,8.88807-9.84284,8.83766Z"/>
    <polygon class="cls-2" points="662.40475 415.49045 714.88451 415.49045 714.88451 395.35311 683.64706 395.35311 683.64706 383.75093 709.35966 383.75093 709.35966 365.82353 683.64706 365.82353 683.64706 354.52385 714.88451 354.52385 714.88451 334.53566 662.40475 334.53566 662.40475 415.49045"/>
    <polygon class="cls-2" points="726.84802 415.49045 779.32778 415.49045 779.32778 395.35311 748.09033 395.35311 748.09033 383.75093 773.80293 383.75093 773.80293 365.82353 748.09033 365.82353 748.09033 354.52385 779.32778 354.52385 779.32778 334.53566 726.84802 334.53566 726.84802 415.49045"/>
    <path class="cls-2" d="m817.70763,334.53566l-26.41529.05042v80.90438h26.41529c27.52026,0,44.34479-15.26581,44.34479-40.37761,0-25.30927-16.82453-40.67801-44.34479-40.57718Zm-.35187,60.71662h-5.12151v-40.6276h4.9209c14.51376,0,23.35247,7.73269,23.35247,20.43774,0,12.5559-8.78829,20.18986-23.15185,20.18986Z"/>
  </g>
  <g>
    <path class="cls-3" d="m351.22889,455.13151s10.58824,25.41176,34.94118,25.05882c0,0-6.35294,4.94118-3.17647,14.47059,0,0,4.58824,16.94118,23.29412,9.17647l66.35294-25.76471s10.94118-10.58824,1.76471-22.94118l-32.82353-18.70588-90.35294,18.70588Z"/>
    <rect class="cls-3" x="183.34653" y="196.30798" width="321.41176" height="261.64706" rx="36.23529" ry="36.23529"/>
    <path class="cls-1" d="m345.17816,444.47058c-.09326-.21204-.19171-.42175-.28644-.63318h-125.07434c-11.80695,0-21.46716-9.40143-21.46716-20.89209v-163.13544c0-1.10181.05914-2.19061.1651-3.2666h61.7063c.32043-.30884.6377-.61957.96552-.92407,1.7782-1.91443,3.63416-3.69562,5.55969-5.35773h-72.40662c-.10919,1.1391-.1701,2.29181-.1701,3.45825v172.70587c0,12.16473,9.95294,22.11768,22.11768,22.11768h130.66687c-.60785-1.35004-1.17981-2.71606-1.77649-4.07269Z"/>
    <path class="cls-1" d="m496.11761,250.26147h-69.11987c.28973.26062.58112.51868.86865.78259,1.89685,1.74127,3.66791,3.58148,5.33124,5.49921h58.21906c.10602,1.07599.1651,2.16479.1651,3.2666v163.13544c0,11.49066-9.66016,20.89209-21.4671,20.89209h-6.3775c-.04419,1.61981-.37396,3.22681-.99109,4.70587h11.42395c12.16473,0,22.11768-9.95294,22.11768-22.11768v-172.70587c0-1.16644-.06091-2.31915-.1701-3.45825Z"/>
    <path class="cls-9" d="m464.75829,205.71972h-249.88232s-24,.47058-22.11768,33.88239h97.26489c3.80237-1.8606,7.75208-3.46893,11.86053-4.80542,14.2807-7.50275,29.67029-10.94293,46.1687-10.32056,20.78308.06464,40.2049,5.11646,58.27362,15.12598h87.6087s4.70593-34.35297-29.17645-33.88239Zm-233.88239,31.05878c-5.45782,0-9.88232-4.42444-9.88232-9.88232s4.4245-9.88239,9.88232-9.88239,9.88239,4.4245,9.88239,9.88239-4.4245,9.88232-9.88239,9.88232Zm20.70593,0c-5.45789,0-9.88239-4.42444-9.88239-9.88232s4.4245-9.88239,9.88239-9.88239,9.88232,4.4245,9.88232,9.88239-4.4245,9.88232-9.88232,9.88232Zm20.70587,0c-5.45789,0-9.88239-4.42444-9.88239-9.88232s4.4245-9.88239,9.88239-9.88239,9.88232,4.4245,9.88232,9.88239-4.42444,9.88232-9.88232,9.88232Z"/>
    <circle class="cls-4" cx="232.18687" cy="227.19414" r="5.41176"/>
    <circle class="cls-5" cx="252.18687" cy="227.19414" r="5.41176"/>
    <circle class="cls-2" cx="272.42217" cy="227.19414" r="5.41176"/>
    <path class="cls-1" d="m394.64065,472.54328s-26.82353,6.11765-42.82353-30.11765l-6.58824-15.52941s-2.82353-8,7.52941-9.41176c10.35294-1.41176,13.64706,3.76471,15.05882,8.47059s5.17647,15.52941,10.82353,13.64706c0,0,4.23529-1.41176.94118-8.47059l-25.41176-66.35294s-1.41176-9.41176,4.70588-10.82353,10.82353-.47059,13.17647,5.17647l16,47.52941s1.41176,2.82353,5.17647,2.82353.94118-6.11765.94118-6.11765l-3.76471-9.41176s-3.76471-6.11765,2.82353-9.41176,10.82353,9.41176,10.82353,9.41176l3.29412,8.94118s.94118,4.23529,3.29412,1.88235,0-7.05882-.94118-9.88235,0-8,2.82353-8,6.58824-1.41176,8.94118,4.23529,3.76471,10.35294,3.76471,10.35294c0,0,2.35294,6.11765,5.17647,2.82353s-.47059-8.47059-.47059-8.47059c0,0-.94118-9.88235,6.58824-7.52941,7.52941,2.35294,10.82353,11.76471,10.82353,11.76471l8.47059,26.82353s7.05882,17.88235-.94118,23.52941l-60.23529,22.11765Z"/>
    <path class="cls-1" d="m458.17006,457.95504l-62.58824,24.47059s-5.64706,3.29412-1.88235,9.41176c0,0,0,8.94118,11.29412,4.70588,3.525-1.32188,57.88235-22.58824,57.88235-22.58824,0,0,7.52941-2.35294,4.70588-9.88235-2.82353-7.52941-9.41176-6.11765-9.41176-6.11765Z"/>
    <path class="cls-7" d="m348.99359,374.19034s-13.17647-28.23529,19.29412-31.52941l8.47059-11.29412-40.94118,16s-16.47059,7.05882-7.05882,21.17647c9.41176,14.11765,20.23529,5.64706,20.23529,5.64706Z"/>
    <g>
      <path class="cls-8" d="m406.87593,336.54328c-14.5882-43.29413-58.35291-42.82355-58.35291-42.82355,0,0-35.29413-1.41174-56,32.47058-20.70593,33.88239,4.70587,66.82355,4.70587,66.82355l23.52942-17.4118c-12.70587-25.41174,8.47058-33.88232,8.47058-33.88232l59.76471-27.29413c7.52942.94116,5.17645,6.58826,5.17645,6.58826l-19.76471,26.35291c2.82355.94122,6.11768,7.52942,6.11768,7.52942l7.52942,22.58826c11.76465-5.64709,18.82349.47058,18.82349.47058,8.94116-21.64703,0-41.41174,0-41.41174Z"/>
      <path class="cls-8" d="m324.52303,381.24916l-72,54.5882h9.41174l42.35297-32.94116c8-2.35291,3.29407,4.70587,3.29407,4.70587l-35.76471,28.23529h9.88239l40.47058-32.47058c8.47058-3.29407,5.17645,4.70593,5.17645,4.70593,0,0-34.35291,27.76465-36.23529,27.76465h9.4118l22.5882-18.35291c6.11768-1.88239,4.70587,4.70587,4.70587,4.70587l-16.47058,13.64703h28.23529c-8.94116-30.5882,20.70593-29.17645,20.70593-29.17645l-8-20.70587c-16.47064,4.70587-27.76471-4.70587-27.76471-4.70587Z"/>
    </g>
    <g>
      <path class="cls-4" d="m289.69947,401.48445l-40,29.64706s-55.52941-66.35294,1.88235-147.76471c0,0,57.41176-78.58824,152-33.88235,0,0,96,51.29412,56.94118,158.58824,0,0-12.11765-38.35294-32.94118-23.05882l-8-5.17647s2.35294-9.88235,1.88235-15.05882h24s8.47059-5.17647-.94118-9.88235h-22.58824s1.41176-10.35294-3.76471-19.76471l20.70588-7.05882s3.76471-5.64706-3.76471-5.64706l-18.82353,7.05882s-4.70588-12.23529-11.29412-17.88235l16.94118-14.58824s1.88235-5.17647-4.70588-4.70588l-16,15.05882s-8-8.47059-10.35294-8.94118l12.23529-16.94118s.47059-9.88235-9.41176-6.11765l-11.29412,18.35294-11.76471-5.64706,8.47059-23.05882s-1.41176-6.11765-7.05882-1.88235l-7.52941,24.94118-11.76471-2.82353.94118-22.58824s-5.17647-8.94118-10.82353.47059v23.52941s-5.17647-1.88235-10.82353.94118l-8.47059-24.47059s-5.64706-4.70588-6.58824,2.82353l9.41176,23.52941s-7.05882,1.41176-12.23529,4.70588l-13.64706-19.29412s-8-4.23529-8.47059,6.11765l13.64706,18.82353s-7.52941,4.70588-10.35294,8.94118l-16.47059-16s-7.52941-1.88235-4.70588,5.64706l16.47059,15.05882s-8,8.94118-9.41176,16.94118l-19.76471-8.47059s-6.11765.94118-1.88235,6.58824l19.29412,7.05882s-3.29412,9.41176-3.76471,18.35294l-21.64706-.94118s-11.76471,4.70588-.94118,11.76471l21.64706-.94118s.94118,11.29412,3.76471,18.35294l-19.29412,8.47059s-4.23529,6.11765,2.82353,4.70588l17.88235-8.47059s5.64706,10.35294,10.35294,14.58824Z"/>
      <path class="cls-10" d="m403.58185,249.48444c-75.51569-35.69147-127.3324,7.20013-145.15985,25.94934,5.90741,5.3277,10.88574,11.42365,16.35095,17.38153.05389.05872.09888.12146.15155.18073,1.58203-.80933,3.95148-.21747,3.95148-.21747l16.47058,16c2.82355-4.23529,10.35297-8.94116,10.35297-8.94116l-13.64709-18.82355c.47058-10.35297,8.47058-6.11768,8.47058-6.11768l13.64709,19.29413c5.17645-3.29413,12.23529-4.70587,12.23529-4.70587l-9.4118-23.52942c.94122-7.52942,6.58826-2.82349,6.58826-2.82349l8.47058,24.47058c5.64703-2.82355,10.82355-.94122,10.82355-.94122v-23.52936c5.64703-9.4118,10.82349-.47064,10.82349-.47064l-.94116,22.58826,11.76471,2.82355,7.52942-24.94116c5.64703-4.23535,7.05884,1.88232,7.05884,1.88232l-8.47058,23.05884,11.76465,5.64703,11.29413-18.35291c9.88239-3.76471,9.4118,6.11761,9.4118,6.11761l-12.23529,16.94116c2.35291.47058,10.35291,8.94122,10.35291,8.94122l16-15.05884c6.58826-.47058,4.70587,4.70587,4.70587,4.70587l-16.94116,14.58826c6.58826,5.64703,11.29413,17.88232,11.29413,17.88232l18.82355-7.05884c7.52942,0,3.76471,5.64709,3.76471,5.64709l-20.70593,7.05884c5.17651,9.41174,3.76471,19.76465,3.76471,19.76465h22.58826c9.41174,4.70593.94116,9.88239.94116,9.88239h-24c.47058,5.17645-1.88232,15.05884-1.88232,15.05884l8,5.17645c21.29407-14.94116,32.94116,23.05884,32.94116,23.05884,39.05884-107.29413-56.94116-158.58826-56.94116-158.58826Z"/>
      <path class="cls-2" d="m437.69098,277.44586c-5.62677,4.91571-11.18048,9.91663-17.03571,14.56232-.23657.18768-.47839.35883-.7193.5329,3.24817.9696,1.99878,4.47278,1.99878,4.47278l-16.94116,14.58826c6.58826,5.64703,11.29413,17.88232,11.29413,17.88232l18.82355-7.05884c7.52942,0,3.76471,5.64709,3.76471,5.64709l-20.70593,7.05884c5.17651,9.41174,3.76471,19.76465,3.76471,19.76465h22.58826c9.41174,4.70593.94116,9.88239.94116,9.88239h-24c.47058,5.17645-1.88232,15.05884-1.88232,15.05884l8,5.17645c21.05878-14.82355,32.94116,23.05884,32.94116,23.05884,22.521-61.86481.15045-105.10016-22.83203-130.62683Z"/>
    </g>
    <path class="cls-6" d="m247.46418,263.8374h-39.05882v3.29412h35.29412l-35.23529,2.52941v3.17647l31.23529-1.41176-31.23529,3.35294v2.47059l28.23529-.88235-28.05882,2.82353v2.64706h23.82353l-23.82353,2.29412v2.64706h20.82353l-20.64706,2.11765v3h18.70588l-18.70588,2.11765v2.47059h16.41176l-16.41176,1.76471v2.82353h14.82353l-14.64706,1.94118v2.29412h13.05882l-13.05882,1.76471v2.47059h11.11765l-10.94118,2.11765v3.35294h9.17647l-9.17647,1.76471v2.29412h7.58824l-7.58824,1.76471v3h6.52941l-6.70588,1.94118v2.82353h5.47059l-5.29412,1.76471v2.82353h4.76471l-4.94118,1.76471v3h4.94118l-5.11765,2.29412.52941,41.64706.88235-29.11765.52941,12.52941,1.05882-12.88235,1.05882,9.70588.88235-10.23529.52941,6.35294s1.41176-27.70588,8.47059-44.11765c0,0,15.52941-42.52941,50.82353-64.58824l-4.5-4.5s-18.08824,13.5-21.61765,18.79412Z"/>
    <path class="cls-6" d="m447.69947,263.8374h39.05882v3.29412h-35.29412s35.23529,2.52941,35.23529,2.52941v3.17647s-31.23529-1.41176-31.23529-1.41176l31.23529,3.35294v2.47059s-28.23529-.88235-28.23529-.88235l28.05882,2.82353v2.64706h-23.82353s23.82353,2.29412,23.82353,2.29412v2.64706h-20.82353s20.64706,2.11765,20.64706,2.11765v3h-18.70588s18.70588,2.11765,18.70588,2.11765v2.47059h-16.41176s16.41176,1.76471,16.41176,1.76471v2.82353h-14.82353s14.64706,1.94118,14.64706,1.94118v2.29412h-13.05882s13.05882,1.76471,13.05882,1.76471v2.47059h-11.11765s10.94118,2.11765,10.94118,2.11765v3.35294h-9.17647s9.17647,1.76471,9.17647,1.76471v2.29412h-7.58824s7.58824,1.76471,7.58824,1.76471v3h-6.52941s6.70588,1.94118,6.70588,1.94118v2.82353h-5.47059s5.29412,1.76471,5.29412,1.76471v2.82353h-4.76471s4.94118,1.76471,4.94118,1.76471v3h-4.94118s5.11765,2.29412,5.11765,2.29412l-.52941,41.64706-.88235-29.11765-.52941,12.52941-1.05882-12.88235-1.05882,9.70588-.88235-10.23529-.52941,6.35294s-1.41176-27.70588-8.47059-44.11765c0,0-15.52941-42.52941-50.82353-64.58824l4.5-4.5s18.08824,13.5,21.61765,18.79412Z"/>
    <path class="cls-9" d="m273.58183,249.54328s30.7059-23.13429,74.4706-25.06715c0,0,39.7647-1.57991,73.5294,25.06715l4.5-4.5-39.91176-26.02941s-37.76471-6.70588-39.52941-6.35294-42.70588,10.94118-42.70588,10.94118c0,0-28.76471,14.29412-34.85294,21.44118l4.5,4.5Z"/>
    <path class="cls-1" d="m429.93477,395.8374l1.41176,6.35294,3.05882,4.23529s3.41176-2.82353,3.41176-4.35294-.47059-8-.47059-8l-7.41176,1.76471Z"/>
  </g>
</svg>