<?xml version="1.0" encoding="UTF-8"?>
<svg id="Layer_1" data-name="Layer 1" xmlns="http://www.w3.org/2000/svg" viewBox="0 0 985.88983 686.3344">
  <defs>
    <style>
      .cls-1 {
        fill: #fffdff;
      }

      .cls-1, .cls-2, .cls-3, .cls-4, .cls-5, .cls-6, .cls-7, .cls-8, .cls-9, .cls-10 {
        stroke-width: 0px;
      }

      .cls-2 {
        fill: #5dbb97;
      }

      .cls-3 {
        fill: #021b3a;
      }

      .cls-4 {
        fill: #fe5246;
      }

      .cls-5 {
        fill: #fdcb50;
      }

      .cls-6 {
        fill: #fff;
      }

      .cls-7 {
        fill: #ff534a;
      }

      .cls-8 {
        fill: #feffff;
      }

      .cls-9 {
        fill: #06a5f7;
      }

      .cls-10 {
        fill: #fcdb72;
      }
    </style>
  </defs>
  <path class="cls-3" d="m504.2965,505.20006s12.89639,30.95133,42.55808,30.52145c0,0-7.73783,6.01831-3.86892,17.62506,0,0,5.58843,20.63422,28.37205,11.17687l80.81736-31.38121s13.32627-12.89639,2.1494-27.94217l-39.9788-22.78362-110.04917,22.78362Z"/>
  <rect class="cls-3" x="299.81712" y="189.95504" width="391.477" height="318.68406" rx="36.23529" ry="36.23529"/>
  <path class="cls-1" d="m496.92677,492.21513c-.11359-.25826-.2335-.51369-.34888-.77121h-152.33956c-14.38077,0-26.14684-11.45087-26.14684-25.4464v-198.69768c0-1.34199.07204-2.66815.20109-3.97869h75.15779c.39029-.37616.77671-.75463,1.17599-1.12551,2.16583-2.33176,4.42637-4.50123,6.77166-6.52567h-88.19069c-.13299,1.38741-.20719,2.79141-.20719,4.21212v210.35439c0,14.81655,12.1226,26.93915,26.93915,26.93915h159.15122c-.74036-1.64433-1.437-3.30815-2.16375-4.96051Z"/>
  <path class="cls-1" d="m680.76983,255.66997h-84.18746c.35289.31743.70779.63174,1.05801.95319,2.31035,2.12086,4.46748,4.36222,6.49341,6.69799h70.91035c.12913,1.31055.20109,2.6367.20109,3.97869v198.69768c0,13.99554-11.76599,25.4464-26.14676,25.4464h-7.76775c-.05382,1.97292-.45548,3.93023-1.20714,5.73171h13.91428c14.81655,0,26.93915-12.1226,26.93915-26.93915v-210.35439c0-1.42072-.07419-2.82471-.20719-4.21212Z"/>
  <path class="cls-9" d="m642.57443,201.41847h-304.3547s-29.23181.57316-26.93915,41.26848h118.46787c4.63125-2.26619,9.44197-4.22513,14.44604-5.85296,17.39378-9.13829,36.13818-13.32841,56.23311-12.57036,25.31363.07873,48.96925,6.2318,70.97681,18.42332h106.70671s5.73179-41.84164-35.53669-41.26848Zm-284.8669,37.82935c-6.64759,0-12.03659-5.38893-12.03659-12.03659s5.38901-12.03667,12.03659-12.03667,12.03667,5.38901,12.03667,12.03667-5.38901,12.03659-12.03667,12.03659Zm25.21966,0c-6.64766,0-12.03667-5.38893-12.03667-12.03659s5.38901-12.03667,12.03667-12.03667,12.03659,5.38901,12.03659,12.03667-5.38901,12.03659-12.03659,12.03659Zm25.21959,0c-6.64766,0-12.03667-5.38893-12.03667-12.03659s5.38901-12.03667,12.03667-12.03667,12.03659,5.38901,12.03659,12.03667-5.38893,12.03659-12.03659,12.03659Z"/>
  <circle class="cls-4" cx="359.30427" cy="227.57413" r="6.59149"/>
  <circle class="cls-5" cx="383.66411" cy="227.57413" r="6.59149"/>
  <circle class="cls-2" cx="408.31054" cy="227.57413" r="6.59149"/>
  <path class="cls-1" d="m557.17169,526.40745s-32.67085,7.45125-52.15872-36.68306l-8.02442-18.9147s-3.43904-9.74394,9.17076-11.46346c12.6098-1.71952,16.62201,4.58538,18.34153,10.31711,1.71952,5.73173,6.3049,18.9147,13.18297,16.62201,0,0,5.15855-1.71952,1.14635-10.31711l-30.95133-80.81736s-1.71952-11.46346,5.73173-13.18297c7.45125-1.71952,13.18297-.57317,16.04884,6.3049l19.48787,57.89045s1.71952,3.43904,6.3049,3.43904,1.14635-7.45125,1.14635-7.45125l-4.58538-11.46346s-4.58538-7.45125,3.43904-11.46346c8.02442-4.01221,13.18297,11.46346,13.18297,11.46346l4.01221,10.89028s1.14635,5.15855,4.01221,2.29269c2.86586-2.86586,0-8.59759-1.14635-12.03663s0-9.74394,3.43904-9.74394,8.02442-1.71952,10.89028,5.15855c2.86586,6.87807,4.58538,12.6098,4.58538,12.6098,0,0,2.86586,7.45125,6.3049,3.43904s-.57317-10.31711-.57317-10.31711c0,0-1.14635-12.03663,8.02442-9.17076,9.17076,2.86586,13.18297,14.32932,13.18297,14.32932l10.31711,32.67085s8.59759,21.78056-1.14635,28.65864l-73.36611,26.93912Z"/>
  <path class="cls-1" d="m634.55001,508.6391l-76.23198,29.80498s-6.87807,4.01221-2.29269,11.46346c0,0,0,10.89028,13.75615,5.73173,4.29343-1.61004,70.50025-27.51229,70.50025-27.51229,0,0,9.17076-2.86586,5.73173-12.03663-3.43904-9.17076-11.46346-7.45125-11.46346-7.45125Z"/>
  <path class="cls-7" d="m501.57393,406.61435s-16.04884-34.39037,23.50008-38.40257l10.31711-13.75615-49.86603,19.48787s-20.06105,8.59759-8.59759,25.79277c11.46346,17.19518,24.64643,6.87807,24.64643,6.87807Z"/>
  <g>
    <path class="cls-8" d="m572.07417,360.76053c-17.76831-52.73191-71.07338-52.15874-71.07338-52.15874,0,0-42.98797-1.71949-68.20756,39.54891-25.21966,41.26848,5.73171,81.39055,5.73171,81.39055l28.65865-21.20744c-15.47565-30.9513,10.3171-41.2684,10.3171-41.2684l72.79294-33.24403c9.17077,1.14633,6.30488,8.02444,6.30488,8.02444l-24.07326,32.09763c3.43906,1.1464,7.45128,9.17077,7.45128,9.17077l9.17077,27.51232c14.32925-6.87812,22.92686.57316,22.92686.57316,10.89026-26.36592,0-50.43918,0-50.43918Z"/>
    <path class="cls-8" d="m471.76898,415.21193l-87.69543,66.48799h11.46343l51.58558-40.12208c9.74394-2.86582,4.01215,5.73171,4.01215,5.73171l-43.56113,34.39036h12.03667l49.29285-39.54891c10.3171-4.01215,6.30488,5.73179,6.30488,5.73179,0,0-41.84157,33.81712-44.1343,33.81712h11.4635l27.51224-22.35369c7.45128-2.29273,5.73171,5.73171,5.73171,5.73171l-20.06104,16.62198h34.39036c-10.89026-37.25618,25.21966-35.53669,25.21966-35.53669l-9.74394-25.21959c-20.06111,5.73171-33.8172-5.73171-33.8172-5.73171Z"/>
  </g>
  <g>
    <path class="cls-4" d="m429.35417,439.85837l-48.71968,36.10988s-67.63439-80.81736,2.29269-179.97625c0,0,69.92708-95.71985,185.1348-41.26844,0,0,116.92724,62.47583,69.3539,193.15922,0,0-14.7592-46.71358-40.12209-28.08547l-9.74394-6.3049s2.86586-12.03663,2.29269-18.34153h29.23181s10.31711-6.3049-1.14635-12.03663h-27.51229s1.71952-12.6098-4.58538-24.07326l25.2196-8.59759s4.58538-6.87807-4.58538-6.87807l-22.92691,8.59759s-5.73173-14.90249-13.75615-21.78056l20.63422-17.76836s2.29269-6.3049-5.73173-5.73173l-19.48787,18.34153s-9.74394-10.31711-12.6098-10.89028l14.90249-20.63422s.57317-12.03663-11.46346-7.45125l-13.75615,22.35374-14.32932-6.87807,10.31711-28.08547s-1.71952-7.45125-8.59759-2.29269l-9.17076,30.37816-14.32932-3.43904,1.14635-27.51229s-6.3049-10.89028-13.18297.57317v28.65864s-6.3049-2.29269-13.18297,1.14635l-10.31711-29.80498s-6.87807-5.73173-8.02442,3.43904l11.46346,28.65864s-8.59759,1.71952-14.90249,5.73173l-16.62201-23.50008s-9.74394-5.15855-10.31711,7.45125l16.62201,22.92691s-9.17076,5.73173-12.6098,10.89028l-20.06105-19.48787s-9.17076-2.29269-5.73173,6.87807l20.06105,18.34153s-9.74394,10.89028-11.46346,20.63422l-24.07326-10.31711s-7.45125,1.14635-2.29269,8.02442l23.50008,8.59759s-4.01221,11.46346-4.58538,22.35374l-26.36595-1.14635s-14.32932,5.73173-1.14635,14.32932l26.36595-1.14635s1.14635,13.75615,4.58538,22.35374l-23.50008,10.31711s-5.15855,7.45125,3.43904,5.73173l21.78056-10.31711s6.87807,12.6098,12.6098,17.76836Z"/>
    <path class="cls-10" d="m568.062,254.72354c-91.97751-43.47193-155.08986,8.76971-176.80355,31.60609,7.19518,6.48909,13.25875,13.91391,19.91533,21.17057.06564.07152.12043.14794.18459.22012,1.9269-.98575,4.81287-.26487,4.81287-.26487l20.06104,19.48787c3.43906-5.15855,12.60983-10.89026,12.60983-10.89026l-16.62205-22.92693c.57316-12.60983,10.3171-7.45128,10.3171-7.45128l16.62205,23.5001c6.30488-4.01222,14.90249-5.73171,14.90249-5.73171l-11.4635-28.65865c1.1464-9.17077,8.02444-3.43898,8.02444-3.43898l10.3171,29.80497c6.87804-3.43906,13.183-1.1464,13.183-1.1464v-28.65857c6.87804-11.4635,13.18292-.57324,13.18292-.57324l-1.14633,27.51232,14.32932,3.43906,9.17077-30.37814c6.87804-5.15862,8.59761,2.29266,8.59761,2.29266l-10.3171,28.08548,14.32925,6.87804,13.75616-22.35369c12.03667-4.58539,11.4635,7.45121,11.4635,7.45121l-14.90249,20.6342c2.86582.57316,12.60976,10.89034,12.60976,10.89034l19.48787-18.34155c8.02444-.57316,5.73171,5.73171,5.73171,5.73171l-20.6342,17.76838c8.02444,6.87804,13.75616,21.78053,13.75616,21.78053l22.92693-8.59761c9.17077,0,4.58539,6.87812,4.58539,6.87812l-25.21966,8.59761c6.30495,11.46343,4.58539,24.07319,4.58539,24.07319h27.51232c11.46343,5.73179,1.14633,12.03667,1.14633,12.03667h-29.23181c.57316,6.30488-2.29266,18.34155-2.29266,18.34155l9.74394,6.30488c25.93601-18.19822,40.12208,28.08548,40.12208,28.08548,47.57336-130.6834-69.35389-193.15925-69.35389-193.15925Z"/>
    <path class="cls-2" d="m609.60665,288.78034c-6.85336,5.9873-13.61774,12.07837-20.74936,17.73679-.28814.2286-.58268.43705-.8761.64907,3.95624,1.18097,2.4345,5.44781,2.4345,5.44781l-20.6342,17.76838c8.02444,6.87804,13.75616,21.78053,13.75616,21.78053l22.92693-8.59761c9.17077,0,4.58539,6.87812,4.58539,6.87812l-25.21966,8.59761c6.30495,11.46343,4.58539,24.07319,4.58539,24.07319h27.51232c11.46343,5.73179,1.14633,12.03667,1.14633,12.03667h-29.23181c.57316,6.30488-2.29266,18.34155-2.29266,18.34155l9.74394,6.30488c25.64942-18.05496,40.12208,28.08548,40.12208,28.08548,27.4304-75.35085.18325-128.01116-27.80923-159.10245Z"/>
  </g>
  <path class="cls-6" d="m377.91191,272.20533h-47.57334v4.01221h42.98796l-42.91631,3.0808v3.86892l38.04434-1.71952-38.04434,4.08386v3.00916l34.39037-1.0747-34.17543,3.43904v3.2241h29.01687l-29.01687,2.79422v3.2241h25.36289l-25.14795,2.57928v3.65398h22.78362l-22.78362,2.57928v3.00916h19.9894l-19.9894,2.1494v3.43904h18.05494l-17.84,2.36434v2.79422h15.90554l-15.90554,2.1494v3.00916h13.54121l-13.32627,2.57928v4.08386h11.17687l-11.17687,2.1494v2.79422h9.24241l-9.24241,2.1494v3.65398h7.95277l-8.16771,2.36434v3.43904h6.66313l-6.44819,2.1494v3.43904h5.80337l-6.01831,2.1494v3.65398h6.01831l-6.23325,2.79422.64482,50.72579,1.0747-35.46506.64482,15.26072,1.28964-15.6906,1.28964,11.82169,1.0747-12.46651.64482,7.73783s1.71952-33.74555,10.31711-53.73495c0,0,18.9147-51.80049,61.90266-78.66796l-5.48096-5.48096s-22.03133,16.44289-26.33012,22.89109Z"/>
  <path class="cls-6" d="m621.79692,272.20533h47.57334v4.01221h-42.98796s42.91631,3.0808,42.91631,3.0808v3.86892s-38.04434-1.71952-38.04434-1.71952l38.04434,4.08386v3.00916s-34.39037-1.0747-34.39037-1.0747l34.17543,3.43904v3.2241h-29.01687s29.01687,2.79422,29.01687,2.79422v3.2241h-25.36289s25.14795,2.57928,25.14795,2.57928v3.65398h-22.78362s22.78362,2.57928,22.78362,2.57928v3.00916h-19.9894s19.9894,2.1494,19.9894,2.1494v3.43904h-18.05494s17.84,2.36434,17.84,2.36434v2.79422h-15.90554s15.90554,2.1494,15.90554,2.1494v3.00916h-13.54121s13.32627,2.57928,13.32627,2.57928v4.08386h-11.17687s11.17687,2.1494,11.17687,2.1494v2.79422h-9.24241s9.24241,2.1494,9.24241,2.1494v3.65398h-7.95277s8.16771,2.36434,8.16771,2.36434v3.43904h-6.66313s6.44819,2.1494,6.44819,2.1494v3.43904h-5.80337s6.01831,2.1494,6.01831,2.1494v3.65398h-6.01831s6.23325,2.79422,6.23325,2.79422l-.64482,50.72579-1.0747-35.46506-.64482,15.26072-1.28964-15.6906-1.28964,11.82169-1.0747-12.46651-.64482,7.73783s-1.71952-33.74555-10.31711-53.73495c0,0-18.9147-51.80049-61.90266-78.66796l5.48096-5.48096s22.03133,16.44289,26.33012,22.89109Z"/>
  <path class="cls-9" d="m409.723,254.79521s37.39954-28.17738,90.7046-30.53159c0,0,48.43309-1.92432,89.55824,30.53159l5.48096-5.48096-48.61221-31.70362s-45.99711-8.16771-48.14651-7.73783-52.01543,13.32627-52.01543,13.32627c0,0-35.03519,17.41012-42.45061,26.11518l5.48096,5.48096Z"/>
  <path class="cls-1" d="m600.15965,432.98029l1.71952,7.73783,3.72562,5.15855s4.1555-3.43904,4.1555-5.30185-.57317-9.74394-.57317-9.74394l-9.02747,2.1494Z"/>
</svg>